<?xml version="1.0" encoding="utf-8"?>
<!-- Generator: Adobe Illustrator 16.0.0, SVG Export Plug-In . SVG Version: 6.00 Build 0)  -->
<!DOCTYPE svg PUBLIC "-//W3C//DTD SVG 1.1//EN" "http://www.w3.org/Graphics/SVG/1.1/DTD/svg11.dtd">
<svg version="1.1" id="图层_1" xmlns="http://www.w3.org/2000/svg" xmlns:xlink="http://www.w3.org/1999/xlink" x="0px" y="0px"
	 width="42.52px" height="42.52px" viewBox="0 0 42.52 42.52" enable-background="new 0 0 42.52 42.52" xml:space="preserve">
<g>
	<path fill="#1380BE" d="M20.5,22.25c0.552,0,1,0.448,1,1c0,0.343-0.185,0.631-0.447,0.813c0.292,0.119,0.611,0.188,0.947,0.188
		c1.381,0,2.5-1.12,2.5-2.5s-1.119-2.5-2.5-2.5s-2.5,1.12-2.5,2.5c0,0.336,0.068,0.655,0.188,0.948
		C19.869,22.434,20.157,22.25,20.5,22.25z"/>
	<path fill="#1380BE" d="M22,14.75c-8.667,0-13,8-13,8s1.946,2.578,6,4.5c1.885,0.895,4.024,2,7,2c3.009,0,5.105-1.09,7-2
		c4.008-1.924,6-4.5,6-4.5S30.667,14.75,22,14.75z M22,18.25c1.93,0,3.5,1.57,3.5,3.5c0,1.93-1.57,3.5-3.5,3.5
		c-1.93,0-3.5-1.57-3.5-3.5C18.5,19.82,20.07,18.25,22,18.25z M28.135,25.447l-0.299,0.143c-1.689,0.816-3.439,1.66-5.836,1.66
		c-2.354,0-4.114-0.839-5.816-1.65l-0.326-0.156c-2.034-0.965-3.474-2.116-4.327-2.918c0.606-0.698,2.693-2.872,6.043-4.03
		C16.901,19.407,16.5,20.53,16.5,21.75c0,3.037,2.463,5.5,5.5,5.5s5.5-2.463,5.5-5.5c0-1.218-0.4-2.339-1.07-3.25
		c3.367,1.173,5.43,3.377,6,4.049C31.561,23.354,30.127,24.491,28.135,25.447z"/>
</g>
</svg>
