<?xml version="1.0" encoding="utf-8"?>
<!-- Generator: Adobe Illustrator 16.0.0, SVG Export Plug-In . SVG Version: 6.00 Build 0)  -->
<!DOCTYPE svg PUBLIC "-//W3C//DTD SVG 1.1//EN" "http://www.w3.org/Graphics/SVG/1.1/DTD/svg11.dtd">
<svg version="1.1" id="图层_1" xmlns="http://www.w3.org/2000/svg" xmlns:xlink="http://www.w3.org/1999/xlink" x="0px" y="0px"
	 width="42.52px" height="42.52px" viewBox="0 0 42.52 42.52" enable-background="new 0 0 42.52 42.52" xml:space="preserve">
<path fill="#1380BE" d="M33.896,17.985c-0.387,0.371-0.821,0.776-1.334,1.24c-0.441,0.418-1.666,1.467-3.58,2.379
	c-0.041,0.02-0.078,0.037-0.119,0.056c-0.26,0.122-0.534,0.239-0.819,0.354c-0.007,0.002-0.015,0.006-0.019,0.008
	c-0.73,0.291-1.541,0.547-2.428,0.744c-0.052,0.012-0.104,0.023-0.154,0.035c-0.17,0.036-0.342,0.071-0.518,0.104
	C23.191,23.223,22,23.165,22,23.165s-1.191,0.058-2.928-0.263c-0.174-0.031-0.348-0.066-0.518-0.103
	c-0.051-0.011-0.103-0.022-0.154-0.034c-0.887-0.199-1.695-0.455-2.426-0.746c-0.006-0.002-0.013-0.006-0.02-0.008
	c-0.285-0.113-0.561-0.231-0.82-0.354c-0.039-0.02-0.078-0.036-0.117-0.055c-1.914-0.914-3.14-1.963-3.58-2.379
	c-0.514-0.464-0.949-0.87-1.334-1.241C9.29,18.605,13.257,25.917,22,25.917S34.711,18.605,33.896,17.985z"/>
</svg>
